<?xml version="1.0" encoding="UTF-8"?>
<!DOCTYPE svg PUBLIC "-//W3C//DTD SVG 1.1//EN" "http://www.w3.org/Graphics/SVG/1.1/DTD/svg11.dtd">
<!-- Creator: CorelDRAW -->
<svg xmlns="http://www.w3.org/2000/svg" xml:space="preserve" width="16mm" height="16mm" version="1.1" style="shape-rendering:geometricPrecision; text-rendering:geometricPrecision; image-rendering:optimizeQuality; fill-rule:evenodd; clip-rule:evenodd"
viewBox="0 0 1600 1600"
 xmlns:xlink="http://www.w3.org/1999/xlink"
 xmlns:xodm="http://www.corel.com/coreldraw/odm/2003">
 <defs>
  <style type="text/css">
   <![CDATA[
    .fil0 {fill:lime}
   ]]>
  </style>
 </defs>
 <g id="Capa_x0020_1">
  <metadata id="CorelCorpID_0Corel-Layer"/>
  <g id="_2581145933504">
   <path class="fil0" d="M787.74 497l0 0 -545.97 -104.45c-0.64,-0.14 -1.29,-0.39 -1.89,-0.73l-193.6 -78.65c-5.59,-3.46 -11.57,3.85 -6.83,8.37l133.27 92.28 1.99 1.22 613.03 204.9 0 0 613.03 -204.9 2 -1.22 133.27 -92.28c4.69,-4.52 -1.3,-11.82 -6.83,-8.37l-193.65 78.7c-0.55,0.34 -1.2,0.58 -1.9,0.73l-545.92 104.4z"/>
   <path class="fil0" d="M526.18 773.88c-13.57,-4.62 -23.44,-16.16 -25.78,-29.98l-28.52 -170 -154.12 -50.77 77.53 319.23c3.09,12.65 12.52,22.92 25.03,27.26l367.37 127.75 349.38 -125.91c12.26,-4.43 21.49,-14.55 24.58,-26.96l30.96 -125.32 -404.86 144.25 -261.57 -89.55z"/>
   <path class="fil0" d="M532.26 597.6l16.75 110.14c2.2,14.45 12.62,26.43 26.88,30.9l211.8 66.24 395.99 -138.36c12.27,-4.29 21.59,-14.26 24.78,-26.58l30.67 -116.76 -451.48 157.5 -255.39 -83.08z"/>
   <path class="fil0" d="M416.33 918.58l22.04 93.25c3.05,12.75 12.52,23.12 25.13,27.5l324.15 112.08 201.03 -73.88 -4.39 32.66c-1.89,14.31 -11.91,26.38 -25.82,31.2l-170.82 59.04 -203.23 -66.19 203.23 178.03 266.5 -92.76c12.52,-4.38 21.94,-14.61 25.03,-27.21l66.76 -273.72 -358.24 126.01 -371.37 -126.01z"/>
  </g>
 </g>
</svg>
