<?xml version="1.0" encoding="UTF-8"?>
<!DOCTYPE svg PUBLIC "-//W3C//DTD SVG 1.1//EN" "http://www.w3.org/Graphics/SVG/1.1/DTD/svg11.dtd">
<!-- Creator: CorelDRAW -->
<svg xmlns="http://www.w3.org/2000/svg" xml:space="preserve" width="30mm" height="30mm" version="1.1" style="shape-rendering:geometricPrecision; text-rendering:geometricPrecision; image-rendering:optimizeQuality; fill-rule:evenodd; clip-rule:evenodd"
viewBox="0 0 3000 3000"
 xmlns:xlink="http://www.w3.org/1999/xlink"
 xmlns:xodm="http://www.corel.com/coreldraw/odm/2003">
 <defs>
  <style type="text/css">
   <![CDATA[
    .fil0 {fill:lime}
   ]]>
  </style>
 </defs>
 <g id="Capa_x0020_1">
  <metadata id="CorelCorpID_0Corel-Layer"/>
  <g id="_2581143691440">
   <path class="fil0" d="M1487.76 881.74l0 0 -1091.94 -208.9c-1.3,-0.29 -2.6,-0.78 -3.79,-1.46l-387.21 -157.3c-11.16,-6.91 -23.13,7.69 -13.66,16.74l266.55 184.56 3.98 2.43 1226.07 409.8 0 0 1226.06 -409.8 3.99 -2.43 266.54 -184.56c9.37,-9.05 -2.59,-23.65 -13.66,-16.74l-387.31 157.4c-1.09,0.68 -2.39,1.17 -3.79,1.46l-1091.83 208.8z"/>
   <path class="fil0" d="M964.62 1435.5c-27.12,-9.25 -46.86,-32.31 -51.55,-59.96l-57.04 -340.01 -308.24 -101.52 155.07 638.45c6.18,25.31 25.03,45.85 50.06,54.51l734.74 255.52 698.74 -251.82c24.53,-8.86 42.98,-29.11 49.16,-53.93l61.93 -250.65 -809.73 288.52 -523.14 -179.11z"/>
   <path class="fil0" d="M976.79 1082.94l33.51 220.28c4.38,28.91 25.23,52.85 53.75,61.81l423.61 132.48 791.98 -276.74c24.53,-8.56 43.18,-28.52 49.56,-53.15l61.33 -233.52 -902.97 314.99 -510.77 -166.15z"/>
   <path class="fil0" d="M744.94 1724.89l44.08 186.51c6.08,25.5 25.03,46.23 50.26,54.99l648.28 224.18 402.07 -147.76 -8.77 65.31c-3.79,28.62 -23.84,52.76 -51.65,62.4l-341.65 118.07 -406.46 -132.38 406.46 356.07 533.01 -185.53c25.03,-8.76 43.88,-29.2 50.06,-54.41l133.53 -547.44 -716.49 252.01 -742.73 -252.02z"/>
  </g>
 </g>
</svg>
